<svg width="18" height="18" viewBox="0 0 18 18" fill="none" xmlns="http://www.w3.org/2000/svg">
<path d="M9.74635 4.12266C9.95246 4.12266 10.1211 3.95404 10.1211 3.74793V1.49924C10.1211 1.29313 9.95246 1.12451 9.74635 1.12451H8.19849C8.03347 0.479654 7.4451 0 6.74804 0C6.05099 0 5.46259 0.479654 5.29759 1.12435H3.74973C3.54362 1.12435 3.375 1.29297 3.375 1.49908V3.74777C3.375 3.95388 3.54362 4.1225 3.74973 4.1225L9.74635 4.12266Z" fill="#212121"/>
<path d="M10.5989 15.774L10.3179 16.5199C10.1379 16.9696 9.72951 17.2507 9.26471 17.2507C9.12981 17.2507 9.00229 17.2282 8.87868 17.1832L5.56556 15.9353C5.28447 15.8228 5.07084 15.6242 4.95082 15.3656H2.24881C2.0427 15.3656 1.87408 15.1969 1.87408 14.9908C1.87408 14.7847 2.0427 14.6161 2.24881 14.6161H4.87224C4.87976 14.5748 4.8909 14.5336 4.90596 14.4961L5.19458 13.7354C5.28085 13.4955 5.43817 13.2819 5.63676 13.117L2.24883 13.1169C2.04272 13.1169 1.8741 12.9483 1.8741 12.7422C1.8741 12.5361 2.04272 12.3674 2.24883 12.3674H6.33382L6.89977 10.8684L2.24859 10.8682C2.04248 10.8682 1.87386 10.6996 1.87386 10.4935C1.87386 10.2874 2.04248 10.1187 2.24859 10.1187H6.86965C6.77977 9.81522 6.79091 9.48911 6.90714 9.18184L7.12078 8.61951H2.24874C2.04263 8.61951 1.87401 8.45089 1.87401 8.24478C1.87401 8.03867 2.04263 7.87005 2.24874 7.87005H7.66448C7.83687 7.76511 8.03545 7.70519 8.24533 7.70519C8.37646 7.70519 8.50775 7.72762 8.63511 7.7764L8.88248 7.86989H11.2436C11.4498 7.86989 11.6184 8.03851 11.6184 8.24462C11.6184 8.45073 11.4498 8.61935 11.2436 8.61935H10.8763L11.9407 9.02043C12.2293 9.12537 12.4617 9.3503 12.5779 9.62762C12.6866 9.87121 12.7015 10.1822 12.6003 10.4596L12.3154 11.2166C12.2329 11.4378 12.1018 11.6288 11.9369 11.7863L13.4923 12.3074V2.62278C13.4923 2.41667 13.3237 2.24805 13.1176 2.24805H10.8689V3.74712C10.8689 4.36543 10.3629 4.87147 9.74455 4.87147H3.74777C3.12946 4.87147 2.62342 4.36543 2.62342 3.74712V2.24805H0.374729C0.16862 2.24805 0 2.41667 0 2.62278V17.6139C0 17.82 0.16862 17.9887 0.374729 17.9887H13.1172C13.3233 17.9887 13.4919 17.82 13.4919 17.6139V16.2684L10.6886 15.0953C10.7112 15.3204 10.6812 15.5527 10.5987 15.7738L10.5989 15.774Z" fill="#212121"/>
<path d="M17.1522 14.3326L10.5446 12.1101L10.8033 11.4317C10.8408 11.4354 10.8745 11.4392 10.912 11.4392C11.0169 11.4392 11.1218 11.4168 11.2193 11.3755C11.4029 11.2892 11.5416 11.1432 11.6128 10.9558L11.8939 10.2062C11.9276 10.1125 11.9239 10.0076 11.8826 9.91754C11.8451 9.82766 11.7664 9.75645 11.6765 9.72272L8.37091 8.47839C8.1797 8.40718 7.96245 8.50459 7.89126 8.6958L7.6064 9.44919C7.53519 9.63663 7.54272 9.83898 7.62507 10.0189C7.68499 10.1538 7.78255 10.2625 7.90239 10.3375L6.6993 13.5231C6.56064 13.5044 6.41821 13.5231 6.28333 13.583C6.10341 13.6655 5.96099 13.8153 5.89354 14.0027L5.60869 14.7524C5.57497 14.846 5.57873 14.9472 5.61998 15.0372C5.66124 15.1309 5.73621 15.1983 5.82986 15.2358L9.1317 16.4801C9.17296 16.4952 9.21797 16.5026 9.26283 16.5026C9.41279 16.5026 9.55521 16.4089 9.61513 16.259L9.89622 15.5093C10.0236 15.1757 9.89246 14.8047 9.60384 14.6173L9.85873 13.9389L16.29 16.6298C16.44 16.6934 16.601 16.7234 16.7585 16.7234C16.9234 16.7234 17.0922 16.6897 17.2457 16.6222C17.5568 16.4873 17.7892 16.24 17.9091 15.9289V15.9251C18.0253 15.6141 18.014 15.2731 17.8678 14.9694C17.7254 14.6662 17.4707 14.4375 17.1521 14.3326L17.1522 14.3326Z" fill="#212121"/>
</svg>
